<?xml version="1.0" encoding="utf-8"?>
<!-- Generator: Adobe Illustrator 27.5.0, SVG Export Plug-In . SVG Version: 6.00 Build 0)  -->
<svg version="1.1" xmlns="http://www.w3.org/2000/svg" xmlns:xlink="http://www.w3.org/1999/xlink" x="0px" y="0px"
	 viewBox="0 0 500 500" style="enable-background:new 0 0 500 500;" xml:space="preserve">
<g id="Background_Simple">
	<g>
		<path style="fill:#92E3A9;" d="M329.181,53.247c0,0-72.735-25.863-144.133,15.313C113.65,109.736,77.624,191.475,46.688,256.952
			c-30.937,65.477-13.129,132.077,41.374,162.446c54.503,30.368,91.563-14.398,168.022-16.578
			c76.459-2.18,97.022,8.751,160.468-34.441c63.446-43.192,74.914-145.199,24.866-220.677
			C391.368,72.224,329.181,53.247,329.181,53.247z"/>
		<path style="opacity:0.7;fill:#FFFFFF;" d="M329.181,53.247c0,0-72.735-25.863-144.133,15.313
			C113.65,109.736,77.624,191.475,46.688,256.952c-30.937,65.477-13.129,132.077,41.374,162.446
			c54.503,30.368,91.563-14.398,168.022-16.578c76.459-2.18,97.022,8.751,160.468-34.441
			c63.446-43.192,74.914-145.199,24.866-220.677C391.368,72.224,329.181,53.247,329.181,53.247z"/>
	</g>
</g>
<g id="Picture">
	<g>
		<rect x="284.667" y="60.333" style="fill:none;stroke:#263238;stroke-miterlimit:10;" width="162.101" height="145.984"/>
		<g>
			<path style="fill:#949494;" d="M344.493,119.358c0,0-5.172-4.396-8.534-11.379c-3.362-6.982-8.276-10.344-14.224-8.793
				c-5.948,1.552-6.982,4.396-9.568,5.948c-2.586,1.552-5.431,2.069-7.241,2.069s-2.327,1.293-1.034,4.138
				c1.293,2.845,2.069,2.327,4.138,2.327s6.207-0.259,5.948,1.035c-0.259,1.293-5.431,2.586-6.465,4.138
				c-1.034,1.552,1.81,1.81,5.689,1.552c3.879-0.259,5.689-3.362,7.5-1.035c1.81,2.327,6.465,12.155,8.534,19.396
				c2.069,7.241,8.017,16.292,10.862,18.103c0,0,0.517,24.309,0.517,26.895s0.517,3.62-1.035,4.396
				c-1.552,0.776-4.913,2.069-5.431,3.62c-0.517,1.552-0.517,1.552-0.517,1.552h9.31c0,0,1.293-1.81,1.293-3.103
				c0-1.293,0-2.069,0-2.069s2.586-3.362,2.586-5.431c0-2.069,1.034-8.793,1.552-10.344c0.517-1.552,2.069-7.241,2.069-8.534
				c0-1.293,0-5.689,0-5.689s13.189-1.81,19.137-5.431c5.948-3.62,8.534-5.948,13.965-5.948c5.431,0,7.5,4.914,9.568,9.051
				c2.069,4.138,9.827,12.413,12.931,15.258s3.103,7.241,3.879,10.344c0.776,3.103,0.517,5.948,0.517,5.948
				s-3.879,0.259-4.138,2.069c-0.259,1.81,0,2.845,0,2.845h6.724c0,0,1.81-2.586,1.81-5.689s1.293-13.448,0-16.292
				c-1.293-2.845-7.5-7.758-7.758-12.93c-0.259-5.172,0.259-17.327,0.259-17.327s5.172,7.5,12.672,6.207
				c7.5-1.293,7.5-4.138,8.017-9.051c0.517-4.914-0.517-3.362-1.034-1.81c-0.517,1.552,0.517,4.914-5.689,5.172
				c-6.207,0.259-12.155-6.207-16.034-11.637c-3.879-5.431-10.603-8.793-20.172-9.051c-9.568-0.259-18.62,3.362-27.93,3.103
				C347.855,122.72,344.493,119.358,344.493,119.358z"/>
		</g>
		<g>
			
				<line style="fill:none;stroke:#263238;stroke-linecap:round;stroke-linejoin:round;stroke-miterlimit:10;" x1="408.667" y1="96.333" x2="392.667" y2="96.333"/>
			
				<line style="fill:none;stroke:#263238;stroke-linecap:round;stroke-linejoin:round;stroke-miterlimit:10;" x1="408.667" y1="99.667" x2="392.667" y2="99.667"/>
			
				<line style="fill:none;stroke:#263238;stroke-linecap:round;stroke-linejoin:round;stroke-miterlimit:10;" x1="408.667" y1="103" x2="392.667" y2="103"/>
		</g>
		<g>
			
				<line style="fill:none;stroke:#263238;stroke-linecap:round;stroke-linejoin:round;stroke-miterlimit:10;" x1="439.817" y1="157.965" x2="423.817" y2="157.965"/>
			
				<line style="fill:none;stroke:#263238;stroke-linecap:round;stroke-linejoin:round;stroke-miterlimit:10;" x1="439.817" y1="161.298" x2="423.817" y2="161.298"/>
			
				<line style="fill:none;stroke:#263238;stroke-linecap:round;stroke-linejoin:round;stroke-miterlimit:10;" x1="439.817" y1="164.631" x2="423.817" y2="164.631"/>
		</g>
		<g>
			
				<line style="fill:none;stroke:#263238;stroke-linecap:round;stroke-linejoin:round;stroke-miterlimit:10;" x1="347.035" y1="83.94" x2="331.035" y2="83.94"/>
			
				<line style="fill:none;stroke:#263238;stroke-linecap:round;stroke-linejoin:round;stroke-miterlimit:10;" x1="347.035" y1="87.273" x2="331.035" y2="87.273"/>
			
				<line style="fill:none;stroke:#263238;stroke-linecap:round;stroke-linejoin:round;stroke-miterlimit:10;" x1="347.035" y1="90.607" x2="331.035" y2="90.607"/>
		</g>
		<g>
			
				<line style="fill:none;stroke:#263238;stroke-linecap:round;stroke-linejoin:round;stroke-miterlimit:10;" x1="311.53" y1="153.275" x2="295.53" y2="153.275"/>
			
				<line style="fill:none;stroke:#263238;stroke-linecap:round;stroke-linejoin:round;stroke-miterlimit:10;" x1="311.53" y1="156.609" x2="295.53" y2="156.609"/>
			
				<line style="fill:none;stroke:#263238;stroke-linecap:round;stroke-linejoin:round;stroke-miterlimit:10;" x1="311.53" y1="159.942" x2="295.53" y2="159.942"/>
		</g>
		<g>
			
				<line style="fill:none;stroke:#263238;stroke-linecap:round;stroke-linejoin:round;stroke-miterlimit:10;" x1="380.866" y1="183.086" x2="364.866" y2="183.086"/>
			
				<line style="fill:none;stroke:#263238;stroke-linecap:round;stroke-linejoin:round;stroke-miterlimit:10;" x1="380.866" y1="186.419" x2="364.866" y2="186.419"/>
			
				<line style="fill:none;stroke:#263238;stroke-linecap:round;stroke-linejoin:round;stroke-miterlimit:10;" x1="380.866" y1="189.753" x2="364.866" y2="189.753"/>
		</g>
		<polyline style="fill:none;stroke:#263238;stroke-linecap:round;stroke-linejoin:round;stroke-miterlimit:10;" points="
			388.972,96.437 381.603,96.437 362.51,121.558 		"/>
		<polyline style="fill:none;stroke:#263238;stroke-linecap:round;stroke-linejoin:round;stroke-miterlimit:10;" points="
			328.345,87.393 322.316,87.393 322.316,97.107 		"/>
		<polyline style="fill:none;stroke:#263238;stroke-linecap:round;stroke-linejoin:round;stroke-miterlimit:10;" points="
			312.938,157.063 318.297,157.063 326.336,142.995 		"/>
		<polyline style="fill:none;stroke:#263238;stroke-linecap:round;stroke-linejoin:round;stroke-miterlimit:10;" points="
			422.467,161.418 417.108,161.418 417.108,149.694 		"/>
		
			<line style="fill:none;stroke:#263238;stroke-linecap:round;stroke-linejoin:round;stroke-miterlimit:10;" x1="382.608" y1="185.534" x2="406.054" y2="185.534"/>
		<rect x="318" y="73" style="fill:#949494;" width="98.667" height="5.333"/>
		<rect x="339.176" y="65.02" style="fill:#949494;" width="56.316" height="4.572"/>
	</g>
</g>
<g id="Plants">
	<g>
		<g>
			<g>
				<g>
					<path style="fill:#92E3A9;" d="M457.35,245.4c0,0,0-5.587-7.822-13.408c-7.822-7.822-12.85-12.291-12.85-12.291
						s-3.911,12.85,3.352,20.672c7.263,7.822,17.32,15.085,17.32,15.085V245.4z"/>
					<path style="fill:#92E3A9;" d="M445.999,280.292c0,0,0-5.587-7.822-13.409c-7.822-7.822-12.85-12.291-12.85-12.291
						s-3.911,12.85,3.352,20.672c7.263,7.822,17.32,15.085,17.32,15.085V280.292z"/>
					<path style="fill:#92E3A9;" d="M456.858,254.915c0,0,0.59-5.556,9.195-12.507c8.604-6.951,14.077-10.865,14.077-10.865
						s2.531,13.191-5.518,20.202c-8.049,7.01-18.816,13.17-18.816,13.17L456.858,254.915z"/>
					<path style="fill:#92E3A9;" d="M443.145,296.122c0,0,1.171-5.463,10.458-11.472c9.287-6.009,15.14-9.326,15.14-9.326
						s1.132,13.384-7.609,19.51c-8.741,6.126-20.096,11.121-20.096,11.121L443.145,296.122z"/>
					<path style="fill:#92E3A9;" d="M445.723,341.049c0,0,0-5.587,7.822-13.409c7.822-7.822,12.85-12.291,12.85-12.291
						s3.911,12.85-3.352,20.672c-7.263,7.822-17.319,15.085-17.319,15.085V341.049z"/>
					<path style="fill:#92E3A9;" d="M445.593,352.015c0,0,0.794-5.53-5.837-14.384c-6.631-8.854-10.973-13.992-10.973-13.992
						s-5.697,12.164,0.381,20.938c6.078,8.774,15,17.393,15,17.393L445.593,352.015z"/>
					<path style="fill:#92E3A9;" d="M437.88,384.515c0,0,0-5.587,7.822-13.409c7.822-7.822,12.85-12.291,12.85-12.291
						s3.911,12.85-3.352,20.672c-7.263,7.822-17.319,15.085-17.319,15.085V384.515z"/>
					<path style="fill:#92E3A9;" d="M443.103,413.98c0,0-1.415-5.405,4.171-14.952c5.586-9.548,9.318-15.145,9.318-15.145
						s7.038,11.44,1.993,20.846c-5.045,9.406-12.934,18.979-12.934,18.979L443.103,413.98z"/>
				</g>
				<path style="fill:none;stroke:#263238;stroke-linecap:round;stroke-linejoin:round;stroke-miterlimit:10;" d="M458.059,243.968
					c-0.458,5.972-1.136,12.15-2.142,17.347c-3.092,15.975-10.821,26.281-13.913,40.71c-3.092,14.429,5.784,33.018,3.407,51.55
					c-2.377,18.533-9.591,28.839-7.53,41.207c2.061,12.368,13.518,47.311,13.518,47.311"/>
				
					<line style="fill:none;stroke:#263238;stroke-linecap:round;stroke-linejoin:round;stroke-miterlimit:10;" x1="456.781" y1="258.629" x2="465.211" y2="252.16"/>
				
					<line style="fill:none;stroke:#263238;stroke-linecap:round;stroke-linejoin:round;stroke-miterlimit:10;" x1="457.174" y1="251.18" x2="453.645" y2="244.907"/>
				<path style="fill:none;stroke:#263238;stroke-linecap:round;stroke-linejoin:round;stroke-miterlimit:10;" d="M442.471,301.362
					c0,0,7.057-5.293,14.31-10.585"/>
				<path style="fill:none;stroke:#263238;stroke-linecap:round;stroke-linejoin:round;stroke-miterlimit:10;" d="M445.999,290.348
					c0,0-5.879-11.528-12.544-19.173"/>
				<path style="fill:none;stroke:#263238;stroke-linecap:round;stroke-linejoin:round;stroke-miterlimit:10;" d="M446,348.997
					c0,0,5.489-10.782,15.094-20.191"/>
				<path style="fill:none;stroke:#263238;stroke-linecap:round;stroke-linejoin:round;stroke-miterlimit:10;" d="M444.628,356.838
					c0,0-3.529-8.429-7.645-14.506c-4.117-6.077-4.705-6.861-4.705-6.861"/>
				<path style="fill:none;stroke:#263238;stroke-linecap:round;stroke-linejoin:round;stroke-miterlimit:10;" d="M437.88,394.782
					c0,0,2.827-7.168,6.355-12.852c3.528-5.685,8.233-10.782,8.233-10.782"/>
				<path style="fill:none;stroke:#263238;stroke-linecap:round;stroke-linejoin:round;stroke-miterlimit:10;" d="M445.65,423.709
					c0,0-0.826-6.69,2.114-12.375c2.94-5.685,6.273-13.134,7.645-16.074"/>
			</g>
			<g>
				<g>
					<path style="fill:#92E3A9;" d="M406.131,320.038c0,0-0.607-3.503,3.449-9.257c4.056-5.754,6.724-9.103,6.724-9.103
						s3.847,7.633,0.142,13.327c-3.706,5.693-9.223,11.34-9.223,11.34L406.131,320.038z"/>
					<path style="fill:#92E3A9;" d="M417.037,340.685c0,0-0.606-3.504,3.449-9.257c4.056-5.754,6.724-9.103,6.724-9.103
						s3.847,7.634,0.142,13.327c-3.706,5.694-9.223,11.34-9.223,11.34L417.037,340.685z"/>
					<path style="fill:#92E3A9;" d="M407.472,325.952c0,0-0.973-3.42-7.124-6.845c-6.15-3.425-10.007-5.285-10.007-5.285
						s-0.155,8.547,5.653,12.069c5.808,3.522,13.229,6.216,13.229,6.216L407.472,325.952z"/>
					<path style="fill:#92E3A9;" d="M420.545,350.303c0,0-1.327-3.299-7.803-6.059c-6.476-2.76-10.506-4.205-10.506-4.205
						s0.743,8.516,6.889,11.409c6.146,2.893,13.809,4.792,13.809,4.792L420.545,350.303z"/>
					<path style="fill:#92E3A9;" d="M423.806,378.756c0,0-0.607-3.503-6.36-7.559c-5.754-4.056-9.392-6.313-9.392-6.313
						s-1.058,8.482,4.346,12.599c5.404,4.116,12.499,7.579,12.499,7.579L423.806,378.756z"/>
					<path style="fill:#92E3A9;" d="M425.078,385.618c0,0-1.098-3.382,2.099-9.654c3.197-6.272,5.362-9.965,5.362-9.965
						s4.893,7.009,2.034,13.171c-2.859,6.162-7.518,12.535-7.518,12.535L425.078,385.618z"/>
					<path style="fill:#92E3A9;" d="M434.895,413.878c0,0,0.406-3.532,5.919-7.91c5.513-4.377,9.017-6.838,9.017-6.838
						s1.54,8.409-3.62,12.827c-5.16,4.418-12.045,8.28-12.045,8.28L434.895,413.878z"/>
					<path style="fill:#92E3A9;" d="M433.442,405.161c0,0-0.606-3.503-6.36-7.559c-5.754-4.056-9.392-6.313-9.392-6.313
						s-1.057,8.483,4.346,12.599c5.403,4.116,12.498,7.579,12.498,7.579L433.442,405.161z"/>
					<path style="fill:#92E3A9;" d="M433.366,424.205c0,0,0.301-3.543-4.239-8.924c-4.539-5.381-7.487-8.486-7.487-8.486
						s-3.172,7.938,1.013,13.289c4.185,5.351,10.171,10.497,10.171,10.497L433.366,424.205z"/>
				</g>
				<path style="fill:none;stroke:#263238;stroke-linecap:round;stroke-linejoin:round;stroke-miterlimit:10;" d="M405.531,319.217
					c0.935,3.695,2.032,7.496,3.227,10.645c3.673,9.682,9.639,15.306,13.144,24.018c3.505,8.712-0.043,21.333,3.46,32.696
					c3.502,11.363,9.145,17.043,9.195,25.022c0.05,7.979-3.1,30.158-3.1,30.158"/>
				
					<line style="fill:none;stroke:#263238;stroke-linecap:round;stroke-linejoin:round;stroke-miterlimit:10;" x1="407.924" y1="328.272" x2="401.936" y2="325.13"/>
				
					<line style="fill:none;stroke:#263238;stroke-linecap:round;stroke-linejoin:round;stroke-miterlimit:10;" x1="406.869" y1="323.643" x2="408.401" y2="319.327"/>
				<path style="fill:none;stroke:#263238;stroke-linecap:round;stroke-linejoin:round;stroke-miterlimit:10;" d="M421.536,353.516
					c0,0-5-2.553-10.122-5.085"/>
				<path style="fill:none;stroke:#263238;stroke-linecap:round;stroke-linejoin:round;stroke-miterlimit:10;" d="M418.129,346.992
					c0,0,2.435-7.868,5.785-13.385"/>
				<path style="fill:none;stroke:#263238;stroke-linecap:round;stroke-linejoin:round;stroke-miterlimit:10;" d="M424.495,383.77
					c0,0-4.612-6.165-11.657-11.023"/>
				<path style="fill:none;stroke:#263238;stroke-linecap:round;stroke-linejoin:round;stroke-miterlimit:10;" d="M426.207,388.538
					c0,0,1.297-5.669,3.219-9.926c1.922-4.258,2.206-4.813,2.206-4.813"/>
				<path style="fill:none;stroke:#263238;stroke-linecap:round;stroke-linejoin:round;stroke-miterlimit:10;" d="M434.285,417.652
					c0,0,3.969-4.865,6.439-6.685c2.47-1.82,4.182-3.636,4.182-3.636"/>
				<path style="fill:none;stroke:#263238;stroke-linecap:round;stroke-linejoin:round;stroke-miterlimit:10;" d="M434.557,411.599
					c0,0-2.551-4.188-5.381-7.369c-2.83-3.182-6.333-5.867-6.333-5.867"/>
				<path style="fill:none;stroke:#263238;stroke-linecap:round;stroke-linejoin:round;stroke-miterlimit:10;" d="M432.825,430.582
					c0,0-0.208-4.285-2.669-7.53c-2.461-3.246-5.359-7.555-6.539-9.25"/>
			</g>
		</g>
	</g>
</g>
<g id="Device">
	<g>
		
			<rect x="292.241" y="269.455" style="fill:none;stroke:#263238;stroke-linecap:round;stroke-linejoin:round;stroke-miterlimit:10;" width="98.026" height="85.092"/>
		<path style="fill:none;stroke:#263238;stroke-linecap:round;stroke-linejoin:round;stroke-miterlimit:10;" d="M378.466,347.059
			h-74.423c-1.753,0-3.175-1.421-3.175-3.175v-63.766c0-1.753,1.422-3.175,3.175-3.175h74.423c1.754,0,3.175,1.421,3.175,3.175
			v63.766C381.641,345.638,380.219,347.059,378.466,347.059z"/>
		<g>
			<path style="fill:none;stroke:#263238;stroke-linecap:round;stroke-linejoin:round;stroke-miterlimit:10;" d="M364.399,368.162
				H318.79v-4.084c0-3.76,3.048-6.807,6.807-6.807h31.995c3.76,0,6.807,3.048,6.807,6.807V368.162z"/>
			<g>
				<polygon style="fill:none;stroke:#263238;stroke-linecap:round;stroke-linejoin:round;stroke-miterlimit:10;" points="
					409.328,409.036 273.604,409.036 288.157,368.162 394.775,368.162 				"/>
				<g>
					<polygon style="fill:none;stroke:#263238;stroke-linecap:round;stroke-linejoin:round;stroke-miterlimit:10;" points="
						297.605,377.237 291.107,377.237 292.767,372.001 299.051,372.001 					"/>
					<polygon style="fill:none;stroke:#263238;stroke-linecap:round;stroke-linejoin:round;stroke-miterlimit:10;" points="
						308.074,377.237 301.576,377.237 302.891,372.001 309.175,372.001 					"/>
					<polygon style="fill:none;stroke:#263238;stroke-linecap:round;stroke-linejoin:round;stroke-miterlimit:10;" points="
						318.543,377.237 312.045,377.237 313.015,372.001 319.298,372.001 					"/>
					<polygon style="fill:none;stroke:#263238;stroke-linecap:round;stroke-linejoin:round;stroke-miterlimit:10;" points="
						329.012,377.237 322.514,377.237 323.138,372.001 329.422,372.001 					"/>
					<polygon style="fill:none;stroke:#263238;stroke-linecap:round;stroke-linejoin:round;stroke-miterlimit:10;" points="
						339.48,377.237 332.982,377.237 333.262,372.001 339.546,372.001 					"/>
					<polygon style="fill:none;stroke:#263238;stroke-linecap:round;stroke-linejoin:round;stroke-miterlimit:10;" points="
						349.949,377.237 343.451,377.237 343.386,372.001 349.67,372.001 					"/>
					<polygon style="fill:none;stroke:#263238;stroke-linecap:round;stroke-linejoin:round;stroke-miterlimit:10;" points="
						360.418,377.237 353.92,377.237 353.51,372.001 359.793,372.001 					"/>
					<polygon style="fill:none;stroke:#263238;stroke-linecap:round;stroke-linejoin:round;stroke-miterlimit:10;" points="
						370.887,377.237 364.389,377.237 363.633,372.001 369.917,372.001 					"/>
					<polygon style="fill:none;stroke:#263238;stroke-linecap:round;stroke-linejoin:round;stroke-miterlimit:10;" points="
						381.356,377.237 374.858,377.237 373.757,372.001 380.041,372.001 					"/>
					<polygon style="fill:none;stroke:#263238;stroke-linecap:round;stroke-linejoin:round;stroke-miterlimit:10;" points="
						391.825,377.237 385.327,377.237 383.881,372.001 390.165,372.001 					"/>
				</g>
				<g>
					<polygon style="fill:none;stroke:#263238;stroke-linecap:round;stroke-linejoin:round;stroke-miterlimit:10;" points="
						295.516,384.799 288.709,384.799 290.528,379.062 297.101,379.062 					"/>
					<polygon style="fill:none;stroke:#263238;stroke-linecap:round;stroke-linejoin:round;stroke-miterlimit:10;" points="
						306.484,384.799 299.676,384.799 301.117,379.062 307.69,379.062 					"/>
					<polygon style="fill:none;stroke:#263238;stroke-linecap:round;stroke-linejoin:round;stroke-miterlimit:10;" points="
						317.451,384.799 310.644,384.799 311.706,379.062 318.279,379.062 					"/>
					<polygon style="fill:none;stroke:#263238;stroke-linecap:round;stroke-linejoin:round;stroke-miterlimit:10;" points="
						328.418,384.799 321.611,384.799 322.296,379.062 328.868,379.062 					"/>
					<polygon style="fill:none;stroke:#263238;stroke-linecap:round;stroke-linejoin:round;stroke-miterlimit:10;" points="
						339.386,384.799 332.578,384.799 332.885,379.062 339.458,379.062 					"/>
					<polygon style="fill:none;stroke:#263238;stroke-linecap:round;stroke-linejoin:round;stroke-miterlimit:10;" points="
						350.353,384.799 343.546,384.799 343.474,379.062 350.047,379.062 					"/>
					<polygon style="fill:none;stroke:#263238;stroke-linecap:round;stroke-linejoin:round;stroke-miterlimit:10;" points="
						361.321,384.799 354.513,384.799 354.063,379.062 360.636,379.062 					"/>
					<polygon style="fill:none;stroke:#263238;stroke-linecap:round;stroke-linejoin:round;stroke-miterlimit:10;" points="
						372.288,384.799 365.481,384.799 364.653,379.062 371.225,379.062 					"/>
					<polygon style="fill:none;stroke:#263238;stroke-linecap:round;stroke-linejoin:round;stroke-miterlimit:10;" points="
						383.255,384.799 376.448,384.799 375.242,379.062 381.814,379.062 					"/>
					<polygon style="fill:none;stroke:#263238;stroke-linecap:round;stroke-linejoin:round;stroke-miterlimit:10;" points="
						394.223,384.799 387.416,384.799 385.831,379.062 392.404,379.062 					"/>
				</g>
				<g>
					<polygon style="fill:none;stroke:#263238;stroke-linecap:round;stroke-linejoin:round;stroke-miterlimit:10;" points="
						293.219,393.117 286.071,393.117 288.073,386.803 294.962,386.803 					"/>
					<polygon style="fill:none;stroke:#263238;stroke-linecap:round;stroke-linejoin:round;stroke-miterlimit:10;" points="
						304.734,393.117 297.587,393.117 299.173,386.803 306.062,386.803 					"/>
					<polygon style="fill:none;stroke:#263238;stroke-linecap:round;stroke-linejoin:round;stroke-miterlimit:10;" points="
						316.25,393.117 309.102,393.117 310.272,386.803 317.162,386.803 					"/>
					<polygon style="fill:none;stroke:#263238;stroke-linecap:round;stroke-linejoin:round;stroke-miterlimit:10;" points="
						327.766,393.117 320.618,393.117 321.372,386.803 328.261,386.803 					"/>
					<polygon style="fill:none;stroke:#263238;stroke-linecap:round;stroke-linejoin:round;stroke-miterlimit:10;" points="
						339.282,393.117 332.134,393.117 332.471,386.803 339.361,386.803 					"/>
					<polygon style="fill:none;stroke:#263238;stroke-linecap:round;stroke-linejoin:round;stroke-miterlimit:10;" points="
						350.798,393.117 343.65,393.117 343.571,386.803 350.46,386.803 					"/>
					<polygon style="fill:none;stroke:#263238;stroke-linecap:round;stroke-linejoin:round;stroke-miterlimit:10;" points="
						362.313,393.117 355.166,393.117 354.671,386.803 361.56,386.803 					"/>
					<polygon style="fill:none;stroke:#263238;stroke-linecap:round;stroke-linejoin:round;stroke-miterlimit:10;" points="
						373.829,393.117 366.681,393.117 365.77,386.803 372.659,386.803 					"/>
					<polygon style="fill:none;stroke:#263238;stroke-linecap:round;stroke-linejoin:round;stroke-miterlimit:10;" points="
						385.345,393.117 378.197,393.117 376.87,386.803 383.759,386.803 					"/>
					<polygon style="fill:none;stroke:#263238;stroke-linecap:round;stroke-linejoin:round;stroke-miterlimit:10;" points="
						396.861,393.117 389.713,393.117 387.969,386.803 394.859,386.803 					"/>
				</g>
				<g>
					<polygon style="fill:none;stroke:#263238;stroke-linecap:round;stroke-linejoin:round;stroke-miterlimit:10;" points="
						290.679,402.311 283.155,402.311 285.37,395.328 292.608,395.328 					"/>
					<polygon style="fill:none;stroke:#263238;stroke-linecap:round;stroke-linejoin:round;stroke-miterlimit:10;" points="
						302.801,402.311 295.277,402.311 297.031,395.328 304.27,395.328 					"/>
					<polygon style="fill:none;stroke:#263238;stroke-linecap:round;stroke-linejoin:round;stroke-miterlimit:10;" points="
						314.923,402.311 307.399,402.311 308.693,395.328 315.931,395.328 					"/>
					<polygon style="fill:none;stroke:#263238;stroke-linecap:round;stroke-linejoin:round;stroke-miterlimit:10;" points="
						327.045,402.311 319.521,402.311 320.354,395.328 327.593,395.328 					"/>
					<polygon style="fill:none;stroke:#263238;stroke-linecap:round;stroke-linejoin:round;stroke-miterlimit:10;" points="
						339.167,402.311 331.643,402.311 332.016,395.328 339.254,395.328 					"/>
					<polygon style="fill:none;stroke:#263238;stroke-linecap:round;stroke-linejoin:round;stroke-miterlimit:10;" points="
						351.289,402.311 343.765,402.311 343.678,395.328 350.916,395.328 					"/>
					<polygon style="fill:none;stroke:#263238;stroke-linecap:round;stroke-linejoin:round;stroke-miterlimit:10;" points="
						363.411,402.311 355.887,402.311 355.339,395.328 362.577,395.328 					"/>
					<polygon style="fill:none;stroke:#263238;stroke-linecap:round;stroke-linejoin:round;stroke-miterlimit:10;" points="
						375.533,402.311 368.009,402.311 367.001,395.328 374.239,395.328 					"/>
					<polygon style="fill:none;stroke:#263238;stroke-linecap:round;stroke-linejoin:round;stroke-miterlimit:10;" points="
						387.654,402.311 380.131,402.311 378.662,395.328 385.9,395.328 					"/>
					<polygon style="fill:none;stroke:#263238;stroke-linecap:round;stroke-linejoin:round;stroke-miterlimit:10;" points="
						399.776,402.311 392.253,402.311 390.324,395.328 397.562,395.328 					"/>
				</g>
			</g>
			
				<rect x="273.02" y="409.036" style="fill:none;stroke:#263238;stroke-linecap:round;stroke-linejoin:round;stroke-miterlimit:10;" width="136.308" height="32.452"/>
		</g>
	</g>
</g>
<g id="Shelf">
	<g>
		<g>
			
				<rect x="214.956" y="190.457" style="fill:#FFFFFF;stroke:#263238;stroke-linecap:round;stroke-linejoin:round;stroke-miterlimit:10;" width="23.937" height="40.11"/>
			
				<rect x="214.956" y="190.457" style="fill:#FFFFFF;stroke:#263238;stroke-linecap:round;stroke-linejoin:round;stroke-miterlimit:10;" width="15.527" height="40.11"/>
			
				<rect x="216.698" y="207.496" style="fill:#92E3A9;stroke:#263238;stroke-linecap:round;stroke-linejoin:round;stroke-miterlimit:10;" width="11.855" height="18.829"/>
		</g>
		<g>
			
				<rect x="196.402" y="190.457" style="fill:#FFFFFF;stroke:#263238;stroke-linecap:round;stroke-linejoin:round;stroke-miterlimit:10;" width="23.937" height="40.11"/>
			
				<rect x="196.402" y="190.457" style="fill:#FFFFFF;stroke:#263238;stroke-linecap:round;stroke-linejoin:round;stroke-miterlimit:10;" width="15.527" height="40.11"/>
			
				<rect x="198.143" y="207.496" style="fill:#92E3A9;stroke:#263238;stroke-linecap:round;stroke-linejoin:round;stroke-miterlimit:10;" width="11.855" height="18.829"/>
		</g>
		<g>
			
				<rect x="177.848" y="190.457" style="fill:#FFFFFF;stroke:#263238;stroke-linecap:round;stroke-linejoin:round;stroke-miterlimit:10;" width="23.937" height="40.11"/>
			
				<rect x="177.848" y="190.457" style="fill:#FFFFFF;stroke:#263238;stroke-linecap:round;stroke-linejoin:round;stroke-miterlimit:10;" width="15.527" height="40.11"/>
			
				<rect x="179.589" y="207.496" style="fill:#92E3A9;stroke:#263238;stroke-linecap:round;stroke-linejoin:round;stroke-miterlimit:10;" width="11.855" height="18.829"/>
		</g>
		<g>
			
				<rect x="102.256" y="392.493" style="fill:#FFFFFF;stroke:#263238;stroke-linecap:round;stroke-linejoin:round;stroke-miterlimit:10;" width="23.937" height="40.11"/>
			
				<rect x="102.256" y="392.493" style="fill:#FFFFFF;stroke:#263238;stroke-linecap:round;stroke-linejoin:round;stroke-miterlimit:10;" width="15.527" height="40.11"/>
			
				<rect x="103.997" y="409.532" style="fill:#92E3A9;stroke:#263238;stroke-linecap:round;stroke-linejoin:round;stroke-miterlimit:10;" width="11.855" height="18.829"/>
		</g>
		<g>
			
				<rect x="69.957" y="392.493" style="fill:#FFFFFF;stroke:#263238;stroke-linecap:round;stroke-linejoin:round;stroke-miterlimit:10;" width="23.937" height="40.11"/>
			
				<rect x="69.957" y="392.493" style="fill:#FFFFFF;stroke:#263238;stroke-linecap:round;stroke-linejoin:round;stroke-miterlimit:10;" width="15.527" height="40.11"/>
			
				<rect x="71.699" y="409.532" style="fill:#92E3A9;stroke:#263238;stroke-linecap:round;stroke-linejoin:round;stroke-miterlimit:10;" width="11.855" height="18.829"/>
		</g>
		<g>
			
				<rect x="212.207" y="392.493" style="fill:#FFFFFF;stroke:#263238;stroke-linecap:round;stroke-linejoin:round;stroke-miterlimit:10;" width="23.937" height="40.11"/>
			
				<rect x="212.207" y="392.493" style="fill:#FFFFFF;stroke:#263238;stroke-linecap:round;stroke-linejoin:round;stroke-miterlimit:10;" width="15.527" height="40.11"/>
			
				<rect x="213.949" y="409.532" style="fill:#92E3A9;stroke:#263238;stroke-linecap:round;stroke-linejoin:round;stroke-miterlimit:10;" width="11.855" height="18.829"/>
		</g>
		<g>
			
				<rect x="179.909" y="392.493" style="fill:#FFFFFF;stroke:#263238;stroke-linecap:round;stroke-linejoin:round;stroke-miterlimit:10;" width="23.937" height="40.11"/>
			
				<rect x="179.909" y="392.493" style="fill:#FFFFFF;stroke:#263238;stroke-linecap:round;stroke-linejoin:round;stroke-miterlimit:10;" width="15.527" height="40.11"/>
			
				<rect x="181.651" y="409.532" style="fill:#92E3A9;stroke:#263238;stroke-linecap:round;stroke-linejoin:round;stroke-miterlimit:10;" width="11.855" height="18.829"/>
		</g>
		<g>
			
				<rect x="159.98" y="392.493" style="fill:#FFFFFF;stroke:#263238;stroke-linecap:round;stroke-linejoin:round;stroke-miterlimit:10;" width="23.937" height="40.11"/>
			
				<rect x="159.98" y="392.493" style="fill:#FFFFFF;stroke:#263238;stroke-linecap:round;stroke-linejoin:round;stroke-miterlimit:10;" width="15.527" height="40.11"/>
			
				<rect x="161.722" y="409.532" style="fill:#92E3A9;stroke:#263238;stroke-linecap:round;stroke-linejoin:round;stroke-miterlimit:10;" width="11.855" height="18.829"/>
		</g>
		<g>
			
				<rect x="201.212" y="307.138" style="fill:#92E3A9;stroke:#263238;stroke-linecap:round;stroke-linejoin:round;stroke-miterlimit:10;" width="37.681" height="10.016"/>
			
				<rect x="201.212" y="307.138" style="fill:#92E3A9;stroke:#263238;stroke-linecap:round;stroke-linejoin:round;stroke-miterlimit:10;" width="21.711" height="10.016"/>
		</g>
		<g>
			
				<rect x="180.596" y="307.138" style="fill:#92E3A9;stroke:#263238;stroke-linecap:round;stroke-linejoin:round;stroke-miterlimit:10;" width="37.681" height="10.016"/>
			
				<rect x="180.596" y="307.138" style="fill:#92E3A9;stroke:#263238;stroke-linecap:round;stroke-linejoin:round;stroke-miterlimit:10;" width="21.711" height="10.016"/>
		</g>
		<g>
			
				<rect x="102.256" y="202.684" style="fill:#FFFFFF;stroke:#263238;stroke-linecap:round;stroke-linejoin:round;stroke-miterlimit:10;" width="23.937" height="27.883"/>
			
				<rect x="102.256" y="202.684" style="fill:#FFFFFF;stroke:#263238;stroke-linecap:round;stroke-linejoin:round;stroke-miterlimit:10;" width="15.527" height="27.883"/>
			
				<rect x="103.997" y="217.315" style="fill:#92E3A9;stroke:#263238;stroke-linecap:round;stroke-linejoin:round;stroke-miterlimit:10;" width="11.855" height="9.01"/>
		</g>
		<g>
			<path style="fill:#92E3A9;stroke:#263238;stroke-linecap:round;stroke-linejoin:round;stroke-miterlimit:10;" d="M69.275,184.542
				H58.498c-2.993,0-5.42,2.427-5.42,5.42v40.605h21.618v-40.605C74.695,186.968,72.269,184.542,69.275,184.542z"/>
			
				<rect x="59.876" y="176.173" style="fill:#263238;stroke:#263238;stroke-linecap:round;stroke-linejoin:round;stroke-miterlimit:10;" width="8.891" height="8.368"/>
			
				<rect x="54.821" y="193.607" style="fill:#FFFFFF;stroke:#263238;stroke-linecap:round;stroke-linejoin:round;stroke-miterlimit:10;" width="13.947" height="29.987"/>
		</g>
		<g>
			<path style="fill:#92E3A9;stroke:#263238;stroke-linecap:round;stroke-linejoin:round;stroke-miterlimit:10;" d="M78.644,78.899
				H58.498c-2.993,0-5.42,2.427-5.42,5.42v60.552h30.987V84.32C84.064,81.326,81.637,78.899,78.644,78.899z"/>
			
				<rect x="62.823" y="66.904" style="fill:#263238;stroke:#263238;stroke-linecap:round;stroke-linejoin:round;stroke-miterlimit:10;" width="12.745" height="11.995"/>
			
				<rect x="55.576" y="91.894" style="fill:#FFFFFF;stroke:#263238;stroke-linecap:round;stroke-linejoin:round;stroke-miterlimit:10;" width="19.991" height="42.982"/>
		</g>
		<g>
			<path style="fill:#92E3A9;stroke:#263238;stroke-linecap:round;stroke-linejoin:round;stroke-miterlimit:10;" d="M118.644,78.899
				H98.497c-2.993,0-5.42,2.427-5.42,5.42v60.552h30.987V84.32C124.064,81.326,121.637,78.899,118.644,78.899z"/>
			
				<rect x="102.823" y="66.904" style="fill:#263238;stroke:#263238;stroke-linecap:round;stroke-linejoin:round;stroke-miterlimit:10;" width="12.744" height="11.995"/>
			
				<rect x="95.576" y="91.894" style="fill:#FFFFFF;stroke:#263238;stroke-linecap:round;stroke-linejoin:round;stroke-miterlimit:10;" width="19.991" height="42.982"/>
		</g>
		<g>
			<path style="fill:#92E3A9;stroke:#263238;stroke-linecap:round;stroke-linejoin:round;stroke-miterlimit:10;" d="M69.275,271.129
				H58.498c-2.993,0-5.42,2.427-5.42,5.42v40.605h21.618v-40.605C74.695,273.555,72.269,271.129,69.275,271.129z"/>
			
				<rect x="59.876" y="262.76" style="fill:#263238;stroke:#263238;stroke-linecap:round;stroke-linejoin:round;stroke-miterlimit:10;" width="8.891" height="8.368"/>
			
				<rect x="54.821" y="280.194" style="fill:#FFFFFF;stroke:#263238;stroke-linecap:round;stroke-linejoin:round;stroke-miterlimit:10;" width="13.947" height="29.987"/>
		</g>
		<g>
			<path style="fill:#92E3A9;stroke:#263238;stroke-linecap:round;stroke-linejoin:round;stroke-miterlimit:10;" d="
				M169.606,271.129h-10.778c-2.994,0-5.42,2.427-5.42,5.42v40.605h21.618v-40.605C175.026,273.555,172.6,271.129,169.606,271.129z"
				/>
			
				<rect x="160.207" y="262.76" style="fill:#263238;stroke:#263238;stroke-linecap:round;stroke-linejoin:round;stroke-miterlimit:10;" width="8.891" height="8.368"/>
			
				<rect x="155.152" y="280.194" style="fill:#FFFFFF;stroke:#263238;stroke-linecap:round;stroke-linejoin:round;stroke-miterlimit:10;" width="13.947" height="29.987"/>
		</g>
		<g>
			<path style="fill:#92E3A9;stroke:#263238;stroke-linecap:round;stroke-linejoin:round;stroke-miterlimit:10;" d="M96.076,271.129
				H85.298c-2.994,0-5.42,2.427-5.42,5.42v40.605h21.618v-40.605C101.496,273.555,99.069,271.129,96.076,271.129z"/>
			
				<rect x="86.677" y="262.76" style="fill:#263238;stroke:#263238;stroke-linecap:round;stroke-linejoin:round;stroke-miterlimit:10;" width="8.891" height="8.368"/>
			
				<rect x="81.621" y="280.194" style="fill:#FFFFFF;stroke:#263238;stroke-linecap:round;stroke-linejoin:round;stroke-miterlimit:10;" width="13.947" height="29.987"/>
		</g>
		<g>
			<path style="fill:#92E3A9;stroke:#263238;stroke-linecap:round;stroke-linejoin:round;stroke-miterlimit:10;" d="M94.729,200.581
				H83.951c-2.994,0-5.42,2.427-5.42,5.42v24.566h21.618v-24.566C100.149,203.008,97.722,200.581,94.729,200.581z"/>
			
				<rect x="85.33" y="192.213" style="fill:#263238;stroke:#263238;stroke-linecap:round;stroke-linejoin:round;stroke-miterlimit:10;" width="8.891" height="8.368"/>
			
				<rect x="80.274" y="209.646" style="fill:#FFFFFF;stroke:#263238;stroke-linecap:round;stroke-linejoin:round;stroke-miterlimit:10;" width="13.947" height="13.947"/>
		</g>
		
			<rect x="35.648" y="144.704" style="fill:none;stroke:#263238;stroke-linecap:round;stroke-linejoin:round;stroke-miterlimit:10;" width="219.522" height="297.296"/>
		
			<rect x="41.925" y="153.206" style="fill:none;stroke:#263238;stroke-linecap:round;stroke-linejoin:round;stroke-miterlimit:10;" width="206.967" height="280.293"/>
		
			<rect x="142.356" y="153.206" style="fill:none;stroke:#263238;stroke-linecap:round;stroke-linejoin:round;stroke-miterlimit:10;" width="6.105" height="280.293"/>
		<g>
			
				<line style="fill:none;stroke:#263238;stroke-linecap:round;stroke-linejoin:round;stroke-miterlimit:10;" x1="181.816" y1="180.211" x2="178.349" y2="183.07"/>
			
				<line style="fill:none;stroke:#263238;stroke-linecap:round;stroke-linejoin:round;stroke-miterlimit:10;" x1="214.622" y1="153.161" x2="186.501" y2="176.349"/>
			
				<line style="fill:none;stroke:#263238;stroke-linecap:round;stroke-linejoin:round;stroke-miterlimit:10;" x1="223.777" y1="153.161" x2="205.54" y2="168.198"/>
		</g>
		<g>
			
				<line style="fill:none;stroke:#263238;stroke-linecap:round;stroke-linejoin:round;stroke-miterlimit:10;" x1="94.52" y1="180.211" x2="91.054" y2="183.07"/>
			
				<line style="fill:none;stroke:#263238;stroke-linecap:round;stroke-linejoin:round;stroke-miterlimit:10;" x1="127.327" y1="153.161" x2="99.205" y2="176.349"/>
			
				<line style="fill:none;stroke:#263238;stroke-linecap:round;stroke-linejoin:round;stroke-miterlimit:10;" x1="136.481" y1="153.161" x2="118.244" y2="168.198"/>
		</g>
		<g>
			
				<line style="fill:none;stroke:#263238;stroke-linecap:round;stroke-linejoin:round;stroke-miterlimit:10;" x1="181.816" y1="265.546" x2="178.349" y2="268.404"/>
			
				<line style="fill:none;stroke:#263238;stroke-linecap:round;stroke-linejoin:round;stroke-miterlimit:10;" x1="214.622" y1="238.495" x2="186.501" y2="261.683"/>
			
				<line style="fill:none;stroke:#263238;stroke-linecap:round;stroke-linejoin:round;stroke-miterlimit:10;" x1="223.777" y1="238.495" x2="205.54" y2="253.532"/>
		</g>
		<g>
			
				<line style="fill:none;stroke:#263238;stroke-linecap:round;stroke-linejoin:round;stroke-miterlimit:10;" x1="94.52" y1="265.546" x2="91.054" y2="268.404"/>
			
				<line style="fill:none;stroke:#263238;stroke-linecap:round;stroke-linejoin:round;stroke-miterlimit:10;" x1="127.327" y1="238.495" x2="99.205" y2="261.683"/>
			
				<line style="fill:none;stroke:#263238;stroke-linecap:round;stroke-linejoin:round;stroke-miterlimit:10;" x1="136.481" y1="238.495" x2="118.244" y2="253.532"/>
		</g>
		<g>
			
				<line style="fill:none;stroke:#263238;stroke-linecap:round;stroke-linejoin:round;stroke-miterlimit:10;" x1="181.816" y1="350.88" x2="178.349" y2="353.738"/>
			
				<line style="fill:none;stroke:#263238;stroke-linecap:round;stroke-linejoin:round;stroke-miterlimit:10;" x1="214.622" y1="323.829" x2="186.501" y2="347.017"/>
			
				<line style="fill:none;stroke:#263238;stroke-linecap:round;stroke-linejoin:round;stroke-miterlimit:10;" x1="223.777" y1="323.829" x2="205.54" y2="338.866"/>
		</g>
		<g>
			
				<line style="fill:none;stroke:#263238;stroke-linecap:round;stroke-linejoin:round;stroke-miterlimit:10;" x1="63.13" y1="379.218" x2="59.663" y2="382.077"/>
			
				<line style="fill:none;stroke:#263238;stroke-linecap:round;stroke-linejoin:round;stroke-miterlimit:10;" x1="95.936" y1="352.167" x2="67.815" y2="375.355"/>
			
				<line style="fill:none;stroke:#263238;stroke-linecap:round;stroke-linejoin:round;stroke-miterlimit:10;" x1="105.091" y1="352.167" x2="86.854" y2="367.205"/>
		</g>
		
			<line style="fill:none;stroke:#263238;stroke-linecap:round;stroke-linejoin:round;stroke-miterlimit:10;" x1="249.479" y1="231.546" x2="149.148" y2="231.546"/>
		
			<line style="fill:none;stroke:#263238;stroke-linecap:round;stroke-linejoin:round;stroke-miterlimit:10;" x1="142.276" y1="231.546" x2="41.945" y2="231.546"/>
		
			<line style="fill:none;stroke:#263238;stroke-linecap:round;stroke-linejoin:round;stroke-miterlimit:10;" x1="249.479" y1="318.133" x2="149.148" y2="318.133"/>
		
			<line style="fill:none;stroke:#263238;stroke-linecap:round;stroke-linejoin:round;stroke-miterlimit:10;" x1="142.276" y1="318.133" x2="41.945" y2="318.133"/>
	</g>
</g>
<g id="Character">
	
		<line style="fill:none;stroke:#263238;stroke-linecap:round;stroke-linejoin:round;stroke-miterlimit:10;" x1="22.121" y1="441.98" x2="472" y2="441.98"/>
	<g>
		<g>
			<path style="fill:#92E3A9;stroke:#263238;stroke-linecap:round;stroke-linejoin:round;stroke-miterlimit:10;" d="
				M173.213,187.214c0,0-27.765,17.26-39.397,22.888c-11.631,5.628-26.64,20.261-27.015,24.764
				c-0.375,4.502,16.509,207.114,16.509,207.114h164.716l-8.255-192.856l10.881-3.752c0,0-23.638-37.521-30.767-40.147
				c-7.129-2.626-37.896-17.635-47.276-19.136C203.229,184.588,173.213,187.214,173.213,187.214z"/>
			<g>
				<path style="fill:#92E3A9;stroke:#263238;stroke-linecap:round;stroke-linejoin:round;stroke-miterlimit:10;" d="
					M324.173,301.076c0,0,6.384-0.766,5.107,5.873s-2.043,11.746-6.384,12.767c-4.341,1.021-6.128-1.277-4.852-6.639
					C319.321,307.715,320.853,300.821,324.173,301.076z"/>
				<path style="fill:#92E3A9;stroke:#263238;stroke-linecap:round;stroke-linejoin:round;stroke-miterlimit:10;" d="
					M320.197,295.878c0,0,6.384-0.766,5.107,5.873c-1.277,6.639-2.043,11.746-6.384,12.767c-4.341,1.021-6.128-1.277-4.852-6.639
					C315.346,302.517,316.878,295.622,320.197,295.878z"/>
				<path style="fill:#92E3A9;stroke:#263238;stroke-linecap:round;stroke-linejoin:round;stroke-miterlimit:10;" d="
					M314.512,290.041c0,0,7.645-0.917,6.116,7.033c-1.529,7.95-2.446,14.066-7.645,15.289c-5.198,1.223-7.339-1.529-5.81-7.95
					C308.702,297.991,310.537,289.735,314.512,290.041z"/>
				<path style="fill:#92E3A9;stroke:#263238;stroke-linecap:round;stroke-linejoin:round;stroke-miterlimit:10;" d="
					M308.396,286.983c0,0,7.645-0.917,6.116,7.033c-1.529,7.95-2.446,14.066-7.645,15.289c-5.198,1.223-7.339-1.529-5.81-7.95
					C302.586,294.934,304.421,286.677,308.396,286.983z"/>
			</g>
			
				<line style="fill:none;stroke:#263238;stroke-linecap:round;stroke-linejoin:round;stroke-miterlimit:10;" x1="157.082" y1="386.493" x2="160.092" y2="382.082"/>
			
				<line style="fill:none;stroke:#263238;stroke-linecap:round;stroke-linejoin:round;stroke-miterlimit:10;" x1="126.608" y1="431.159" x2="153.568" y2="391.644"/>
			
				<line style="fill:none;stroke:#263238;stroke-linecap:round;stroke-linejoin:round;stroke-miterlimit:10;" x1="127.526" y1="411.437" x2="140.369" y2="394.466"/>
			
				<line style="fill:none;stroke:#263238;stroke-linecap:round;stroke-linejoin:round;stroke-miterlimit:10;" x1="208.793" y1="432.678" x2="231.645" y2="405.474"/>
			
				<line style="fill:none;stroke:#263238;stroke-linecap:round;stroke-linejoin:round;stroke-miterlimit:10;" x1="202.748" y1="439.874" x2="204.637" y2="437.626"/>
		</g>
		<g>
			<g>
				<path style="fill:#FFFFFF;stroke:#263238;stroke-linecap:round;stroke-linejoin:round;stroke-miterlimit:10;" d="
					M233.116,369.341c0,0,6.276,51.773,7.06,58.44c0.784,6.668,0,7.06-0.392,8.237c-0.392,1.177-8.237,5.883-6.275,9.021
					c1.961,3.138,6.275,1.177,6.275,1.177s2.353,1.961,5.099,1.961s3.53-1.177,3.53-1.177s2.745,2.353,7.06,1.569
					c4.314-0.784,8.629-7.06,8.629-7.06s4.314-0.392,5.099-3.922c0.784-3.53,0.784-5.883,0.784-5.883s3.138,2.746,3.53-1.177
					c0.392-3.922,0-9.021,0-9.021s1.569,0.784,0.785-6.276c-0.785-7.06-2.353-15.296-2.353-15.296s1.961-3.138,0.392-9.806
					c-1.569-6.668-11.767-30.593-11.767-30.593"/>
				<path style="fill:#263238;stroke:#263238;stroke-miterlimit:10;" d="M245.753,384.322c0,0,6.888,9.919,13.501,13.225
					c6.613,3.306,11.297,4.133,11.297,4.133v-9.092C270.55,392.588,254.569,391.486,245.753,384.322z"/>
				<path style="fill:none;stroke:#263238;stroke-miterlimit:10;" d="M245.038,432.918c0,0-1.255,3.136,1.882,3.763
					c3.136,0.627,4.391-0.941,4.391-0.941s1.568,2.822,4.077,1.882c2.509-0.941,2.823-1.882,2.823-1.882s1.882,2.822,5.018,1.568
					c3.136-1.254,3.136-3.45,3.136-3.45"/>
				<path style="fill:#FFFFFF;stroke:#263238;stroke-linecap:round;stroke-linejoin:round;stroke-miterlimit:10;" d="
					M239.784,446.216c0,0-1.569-3.138,2.353-5.491"/>
				<path style="fill:#FFFFFF;stroke:#263238;stroke-linecap:round;stroke-linejoin:round;stroke-miterlimit:10;" d="M248.413,447
					c0,0,0-3.53,3.922-5.099"/>
			</g>
			<path style="fill:#FFFFFF;stroke:#263238;stroke-linecap:round;stroke-linejoin:round;stroke-miterlimit:10;" d="
				M369.728,417.555c0,0,11.976,17.366,20.36,17.965c8.383,0.599,10.479-1.796,12.875-1.796c2.395,0,2.395,1.796,0.299,5.389
				c-2.096,3.593-8.383,8.084-13.473,9.282c-5.09,1.198-13.473-1.198-13.473-1.198s3.593,2.395,0,2.994
				c-3.593,0.599-10.479-3.892-10.479-3.892s1.497,3.892-2.096,1.797c-3.593-2.096-8.084-7.785-8.084-14.971"/>
			<path style="fill:#FFFFFF;stroke:#263238;stroke-linecap:round;stroke-linejoin:round;stroke-miterlimit:10;" d="
				M232.831,306.194c0,0-10.982,16.473-11.767,32.554c-0.784,16.081,5.491,17.65,5.491,17.65s2.745,11.374,6.668,16.865
				c3.922,5.491,5.883,2.353,5.883,2.353s3.922,7.06,11.374,12.159c7.452,5.099,20.395,7.06,20.395,7.06l22.595,35.18
				c5.229,8.141,14.24,13.063,23.915,13.063h43.307c0,0,18.827-7.06,8.629-49.419c-10.198-42.36-30.593-66.285-53.734-80.797
				c-15.015-9.416-26.671-7.844-26.671-7.844L232.831,306.194z"/>
			<path style="fill:#263238;stroke:#263238;stroke-miterlimit:10;" d="M319.733,380.099c0,0-13.906,5.562-20.511,11.472
				c-6.605,5.91,3.32,10.963,3.32,10.963L319.733,380.099z"/>
			<polygon style="fill:#263238;stroke:#263238;stroke-miterlimit:10;" points="265.866,379.362 265.315,393.69 271.928,395.619 			
				"/>
			<g>
				<g>
					<path style="fill:#FFFFFF;stroke:#263238;stroke-linecap:round;stroke-linejoin:round;stroke-miterlimit:10;" d="
						M260.679,234.026l-12.943-0.392c0,0-6.668-14.904-10.59-14.512c-3.922,0.392-8.237,15.296-8.237,18.434
						c0,3.138-0.392,5.883-0.392,5.883s-6.276,3.138-10.59,12.551c-4.314,9.413-1.569,11.374-1.569,11.374s-1.961,3.138-2.746,7.452
						c-0.784,4.314,3.53,5.099,3.53,5.099s-5.883,9.413-3.922,12.943c1.961,3.53,5.883,1.177,5.883,1.177s0.785,9.021,2.746,10.59
						c1.961,1.569,7.06-0.784,7.06-0.784s10.198,10.198,12.551,12.159c2.353,1.961,5.883-0.784,5.883-0.784s4.426,2.901,9.021,3.922
						c15.136,3.363,26.671-1.177,32.946-4.707c6.275-3.53,10.198-11.374,10.198-11.374s3.138,5.099,4.314,1.177
						c1.177-3.922,1.569-11.766,1.569-11.766s3.53,0.784,3.53-2.353c0-3.138-0.785-14.904-0.785-14.904s1.569,0,1.569-4.314
						c0-4.314-2.353-10.982-2.353-10.982s3.922-25.102,0-25.102s-13.728,7.06-13.728,7.06s-1.569-4.314-2.746-4.314
						c-1.177,0,3.53-2.353,1.569-3.53c-1.961-1.177-9.413,0.392-9.413,0.392s0.392-7.06-1.961-4.707
						c-2.353,2.353-3.53,3.53-3.53,3.53s-2.746-8.237-5.099-6.668c-2.353,1.569-2.353,5.491-2.353,5.491s-7.06-2.745-7.06-0.392
						C263.032,234.026,260.679,234.026,260.679,234.026z"/>
					<path style="fill:none;stroke:#263238;stroke-linecap:round;stroke-linejoin:round;stroke-miterlimit:10;" d="M226.229,287.784
						c-0.664,2.609-1.162,5.381-0.504,6.039c1.318,1.318,4.392,0.439,4.392,0.439s-0.439,3.514,2.196,4.831
						c2.635,1.318,5.271,0,5.271,0"/>
					<path style="fill:none;stroke:#263238;stroke-linecap:round;stroke-linejoin:round;stroke-miterlimit:10;" d="M227.724,282.72
						c0,0-0.368,1.087-0.811,2.585"/>
					<path style="fill:#BABABA;stroke:#263238;stroke-linecap:round;stroke-linejoin:round;stroke-miterlimit:10;" d="
						M246.615,236.25c0,0-6.574-14.462-8.875-13.476c-2.301,0.986-3.616,5.588-4.273,10.518c-0.657,4.93,0.329,8.217,0.329,8.217
						l3.287-2.629c0,0-1.315-2.63,0-2.63c1.315,0,2.63,0.657,2.63,0.657s0-6.574,0.986-4.602c0.986,1.972,1.643,3.944,1.643,3.944
						H246.615z"/>
					<path style="fill:#BABABA;stroke:#263238;stroke-linecap:round;stroke-linejoin:round;stroke-miterlimit:10;" d="
						M295.589,242.824c0,0,10.189-9.203,11.833-5.588s-1.315,20.05-1.315,20.05l-2.629-5.588c0,0,0.657-3.944-0.329-3.944
						c-0.986,0-2.301,0-2.301,0s0.329-2.63-0.986-2.63c-1.315,0-2.629,0-2.629,0L295.589,242.824z"/>
				</g>
				<path style="fill:#263238;stroke:#263238;stroke-linecap:round;stroke-linejoin:round;stroke-miterlimit:10;" d="
					M273.34,263.035c0,0-12.551-2.353-22.357,3.53c-9.805,5.883-12.943,14.12-10.59,13.728c2.353-0.392,2.353-0.392,2.353-0.392
					s-3.922,3.53-3.138,6.276c0.784,2.745,3.53,2.353,3.53,2.353s-1.177,5.883-0.785,7.06c0.392,1.177,3.138,0.784,3.138,0.784
					s5.491,10.982,18.826,15.689c13.335,4.707,23.925-3.53,26.279-5.491s3.922-5.883,3.922-5.883s1.961,3.138,3.138,0
					c1.177-3.138,1.177-6.668,1.177-6.668s3.53,1.177,3.138-1.177c-0.392-2.353-3.138-9.413-3.138-9.413s3.53,0.784-1.569-5.883
					C292.166,270.88,289.813,263.427,273.34,263.035z"/>
				<path style="fill:#FFFFFF;stroke:#263238;stroke-linecap:round;stroke-linejoin:round;stroke-miterlimit:10;" d="
					M273.622,262.266c0,0-12.551-2.353-22.356,3.53c-9.805,5.883-12.943,14.12-10.59,13.728c2.353-0.392,2.353-0.392,2.353-0.392
					s-3.922,3.53-3.138,6.276c0.785,2.746,3.53,2.353,3.53,2.353s-1.177,5.883-0.785,7.06c0.392,1.177,3.138,0.784,3.138,0.784
					s5.491,10.982,18.826,15.689c13.335,4.707,23.925-3.53,26.279-5.491s3.922-5.883,3.922-5.883s1.961,3.138,3.138,0
					c1.177-3.138,1.177-6.668,1.177-6.668s3.53,1.177,3.138-1.177c-0.392-2.353-3.138-9.413-3.138-9.413s3.53,0.784-1.569-5.883
					C292.448,270.11,290.095,262.658,273.622,262.266z"/>
				<path style="fill:#263238;stroke:#263238;stroke-linecap:round;stroke-linejoin:round;stroke-miterlimit:10;" d="
					M284.212,265.403c0,0-8.629-5.883-14.904-3.138c-6.275,2.745-1.177,11.767,5.883,13.728
					C282.251,277.954,290.879,269.718,284.212,265.403z"/>
				<path style="fill:none;stroke:#263238;stroke-linecap:round;stroke-linejoin:round;stroke-miterlimit:10;" d="M260.679,274.032
					c0,0,1.961,4.314,11.767,6.668c9.806,2.353,15.297-1.961,15.297-1.961"/>
				<path style="fill:#FFFFFF;stroke:#263238;stroke-linecap:round;stroke-linejoin:round;stroke-miterlimit:10;" d="
					M243.813,243.047c0,0-8.629,10.59-7.06,12.159c1.569,1.569,6.276-0.392,6.276-0.392s-3.922,7.06,0,8.629
					c3.922,1.569,12.943-4.707,12.943-4.707s0,4.707,3.922,3.53c3.922-1.177,7.844-3.922,7.844-3.922s1.569,3.922,4.314,2.746
					c2.746-1.177,5.099-6.668,5.099-6.668s3.138,9.021,5.099,8.237c1.961-0.785,1.961-0.785,1.961-0.785s5.099,5.883,8.237,4.707
					c3.138-1.177,3.138-4.314,3.138-4.314s4.314,0.784,4.707-2.746c0.392-3.53-1.177-10.59-5.883-15.296"/>
			</g>
			<g>
				<path style="fill:#FFFFFF;stroke:#263238;stroke-linecap:round;stroke-linejoin:round;stroke-miterlimit:10;" d="
					M264.993,369.554c0,0,6.275,52.897,7.06,59.71c0.784,6.813,0,7.213-0.392,8.415s-8.237,6.011-6.276,9.217
					c1.961,3.206,6.276,1.202,6.276,1.202s2.353,2.004,5.099,2.004c2.746,0,3.53-1.202,3.53-1.202s2.746,2.405,7.06,1.603
					c4.314-0.802,8.629-7.213,8.629-7.213s4.314-0.401,5.099-4.007c0.784-3.607,0.784-6.011,0.784-6.011s3.138,2.805,3.53-1.202
					c0.392-4.007,0-9.217,0-9.217s1.569,0.801,0.784-6.412c-0.784-7.213-2.353-15.629-2.353-15.629s1.961-3.206,0.392-10.018
					c-1.569-6.813-11.767-31.258-11.767-31.258"/>
				<path style="fill:none;stroke:#263238;stroke-miterlimit:10;" d="M275.772,435.113c0,0-0.941,2.823,1.568,2.823
					c2.509,0,4.391-1.882,4.391-1.882s-0.941,3.136,3.45,2.822c4.391-0.314,6.272-1.568,6.272-1.568s-0.941,2.509,1.568,2.509
					c2.509,0,5.332-3.45,5.332-3.45"/>
				<path style="fill:#FFFFFF;stroke:#263238;stroke-linecap:round;stroke-linejoin:round;stroke-miterlimit:10;" d="
					M271.661,448.099c0,0-1.569-3.206,2.353-5.61"/>
				<path style="fill:#FFFFFF;stroke:#263238;stroke-linecap:round;stroke-linejoin:round;stroke-miterlimit:10;" d="M280.29,448.9
					c0,0,0-3.607,3.922-5.209"/>
			</g>
			<path style="fill:#FFFFFF;stroke:#263238;stroke-linecap:round;stroke-linejoin:round;stroke-miterlimit:10;" d="
				M319.726,441.181c0,0-6.288,3.294-3.293,7.186c2.994,3.892,8.084,0.599,8.084,0.599s2.695,2.994,7.186,2.994
				c4.491,0,5.689-2.395,5.689-2.395s1.497,2.994,6.886,1.796c5.389-1.198,6.587-7.785,6.587-7.785L319.726,441.181z"/>
			<g>
				<path style="fill:#FFFFFF;stroke:#263238;stroke-linecap:round;stroke-linejoin:round;stroke-miterlimit:10;" d="
					M326.313,375.909c0,0-26.947,13.473-29.043,32.336c-2.096,18.863,13.473,33.234,29.342,36.528
					c15.869,3.294,28.455,9.688,41.019-4.79c9.125-10.515,8.982-28.444,2.695-44.013c0,0-2.395-6.587-6.587-10.18"/>
				<path style="fill:none;stroke:#263238;stroke-miterlimit:10;" d="M318.552,430.164c2.029-0.265,2.382-1.323,2.382-1.323"/>
				<path style="fill:none;stroke:#263238;stroke-miterlimit:10;" d="M307.134,399.988c0,0-5.959,4.077-5.018,9.722
					c0.941,5.645,4.077,1.254,4.077,1.254s-4.739,8.408-0.801,11.888c3.938,3.48,4.565-0.284,4.565-0.284s1.568,6.9,5.959,7.527"/>
			</g>
		</g>
		<path style="fill:none;stroke:#263238;stroke-width:3;stroke-linecap:round;stroke-linejoin:round;stroke-miterlimit:10;" d="
			M202.26,263.645c0,0-2.549,97.196,5.64,109.795c4.888,7.52,15.04,10.152,18.424-13.536"/>
		<path style="fill:#BABABA;stroke:#263238;stroke-linecap:round;stroke-linejoin:round;stroke-miterlimit:10;" d="M167.96,186.839
			c0,0,5.253,28.891,15.383,42.023s15.383,16.884,19.135,13.507c3.752-3.377,9.005-19.511,10.881-31.517
			c1.876-12.007,3.377-27.015,3.377-27.015L167.96,186.839z"/>
		<g>
			<path style="fill:#BABABA;stroke:#263238;stroke-linecap:round;stroke-linejoin:round;stroke-miterlimit:10;" d="
				M220.684,142.946c0,0,6.016-3.76,7.896,1.504c1.88,5.264-1.504,16.168-4.512,19.176c-3.008,3.008-4.136,0.376-4.136,0.376
				L220.684,142.946z"/>
			<path style="fill:#BABABA;stroke:#263238;stroke-linecap:round;stroke-linejoin:round;stroke-miterlimit:10;" d="
				M153.702,151.195c0,0-3.752-9.755-7.504-3.377c-3.752,6.379,0.375,19.511,3.002,22.512c2.626,3.002,7.879,2.251,7.879,2.251
				s10.506,15.759,16.884,24.388c6.378,8.63,13.507,13.132,25.889,11.631c12.382-1.501,19.511-13.507,19.511-22.512
				c0-9.005,6.003-23.263,3.377-37.896c-2.626-14.633-0.375-13.883-2.626-29.266c-2.251-15.383-1.126-25.514-6.754-30.017
				c-5.628-4.503-29.266-4.878-45.4,0.75c-16.134,5.628-21.012,8.63-21.387,16.509S153.702,151.195,153.702,151.195z"/>
			<path style="fill:none;stroke:#263238;stroke-linecap:round;stroke-linejoin:round;stroke-miterlimit:10;" d="M183.323,158.49
				c0,0-2.642,4.491-7.661,6.605"/>
			<path style="fill:none;stroke:#263238;stroke-linecap:round;stroke-linejoin:round;stroke-miterlimit:10;" d="M203.401,157.433
				c0,0,2.906,3.699,8.982,4.491"/>
			<path style="fill:#263238;stroke:#263238;stroke-linecap:round;stroke-linejoin:round;stroke-miterlimit:10;" d="
				M221.561,139.851c-0.621-6.863,0.261-9.252-1.447-20.924c-2.251-15.383-1.126-25.514-6.754-30.017
				c-5.628-4.503-29.266-4.878-45.4,0.75c-16.134,5.628-21.012,8.63-21.387,16.509c-0.321,6.737,5.115,34.851,6.699,42.867
				l0.43,0.657c0,0,0.75,6.754,1.876,8.63c1.126,1.876,4.127,2.251,4.127-1.501c0-3.752-3.377-14.258-1.501-18.385
				c1.876-4.127-0.375-11.256,2.626-17.635c3.002-6.379,15.008-4.878,21.762-2.251c6.754,2.627,8.254,3.377,15.008,0
				c6.754-3.377,9.38-7.879,15.383-5.253c6.003,2.626,5.628,8.255,6.378,15.008C220.036,134.362,220.41,136.5,221.561,139.851z"/>
			<path style="fill:#263238;stroke:#263238;stroke-linecap:round;stroke-linejoin:round;stroke-miterlimit:10;" d="
				M217.112,174.458c-1.876-4.878-15.008-6.003-18.01-6.003c-3.002,0-10.131,1.501-10.131,1.501s-19.136,3.752-19.136,7.129
				c0,3.178,1.329,11.009,2.424,17.55c0.591,0.82,1.163,1.605,1.703,2.336c6.378,8.63,13.507,13.132,25.889,11.631
				c8.508-1.031,14.536-7.023,17.475-13.593c0.105-1.115,0.16-1.791,0.16-1.791S218.988,179.335,217.112,174.458z M212.609,186.089
				c-1.501,7.504-5.253,12.757-9.005,11.256c-3.752-1.501-2.251-5.628-2.251-5.628l-9.005,0.75c0,0,0,1.126,0,3.377
				c0,2.251-1.126,2.626-4.502,2.251c-3.377-0.375-7.504-4.127-8.255-6.754c-0.75-2.626-1.876-11.256-1.126-12.757
				c0.75-1.501,16.134-4.878,16.134-4.878l15.759,0.375C210.358,174.082,214.11,178.585,212.609,186.089z"/>
			<path style="fill:#BABABA;stroke:#263238;stroke-linecap:round;stroke-linejoin:round;stroke-miterlimit:10;" d="
				M197.976,153.071l0.375,4.878c0,0,3.377,1.126,2.626,7.504c-0.75,6.378-5.253,8.255-10.131,6.378
				c-4.878-1.876-3.377-5.628-3.377-5.628"/>
			<ellipse style="fill:#263238;" cx="178.466" cy="154.009" rx="1.876" ry="3.565"/>
			<path style="fill:#263238;" d="M210.358,151.945c0,1.969-0.84,3.564-1.876,3.564s-1.876-1.596-1.876-3.564
				s0.84-3.564,1.876-3.564S210.358,149.977,210.358,151.945z"/>
			<path style="fill:none;stroke:#263238;stroke-linecap:round;stroke-linejoin:round;stroke-miterlimit:10;" d="M182.968,178.585
				c0,0,12.007,6.003,25.514-2.626"/>
			<path style="fill:none;stroke:#263238;stroke-width:3;stroke-linecap:round;stroke-linejoin:round;stroke-miterlimit:10;" d="
				M185.219,145.191c0,0-10.131-3.002-16.134,1.501"/>
			<path style="fill:none;stroke:#263238;stroke-width:3;stroke-linecap:round;stroke-linejoin:round;stroke-miterlimit:10;" d="
				M199.852,143.315c0,0,6.379-5.253,15.383-1.126"/>
		</g>
		<g>
			<g>
				<path style="fill:#FFFFFF;stroke:#263238;stroke-linecap:round;stroke-linejoin:round;stroke-miterlimit:10;" d="
					M221.968,222.946c-0.183,0-0.369-0.034-0.549-0.105c-0.771-0.304-1.15-1.174-0.847-1.945c2.524-6.413,4.857-13.665,6.933-21.555
					c10.306-39.162,8.071-41.092,6.87-42.128c-0.159-0.137-0.314-0.273-0.463-0.422c-1.287-1.286-4.886-2.34-6.045-2.607
					c-0.807-0.186-1.311-0.992-1.124-1.799c0.187-0.807,0.99-1.31,1.799-1.124c0.543,0.126,5.369,1.286,7.492,3.409
					c0.097,0.097,0.199,0.184,0.303,0.273c2.496,2.155,4.853,4.191-5.929,45.163c-2.106,8.003-4.476,15.368-7.042,21.89
					C223.132,222.585,222.567,222.946,221.968,222.946z"/>
			</g>
			<path style="fill:#263238;stroke:#263238;stroke-linecap:round;stroke-linejoin:round;stroke-miterlimit:10;" d="
				M227.432,154.611l-1.014-0.295c-1.26-0.366-1.984-1.684-1.618-2.945l0,0c0.366-1.26,1.684-1.984,2.944-1.618l1.014,0.295
				c1.26,0.366,1.984,1.684,1.618,2.944l0,0C230.01,154.253,228.691,154.977,227.432,154.611z"/>
			<g>
				<path style="fill:#FFFFFF;stroke:#263238;stroke-linecap:round;stroke-linejoin:round;stroke-miterlimit:10;" d="
					M166.836,223.465c-0.471,0-0.935-0.221-1.227-0.635c-14.882-21.09-27.267-49.203-27.267-53.187
					c0-4.789,8.801-9.77,10.565-10.721c0.73-0.392,1.639-0.119,2.031,0.609c0.393,0.729,0.12,1.639-0.609,2.032
					c-3.624,1.955-8.988,5.874-8.988,8.08c0.024,2.785,11.749,30.243,26.718,51.458c0.478,0.677,0.316,1.613-0.361,2.09
					C167.437,223.376,167.135,223.465,166.836,223.465z"/>
			</g>
			<path style="fill:#263238;stroke:#263238;stroke-linecap:round;stroke-linejoin:round;stroke-miterlimit:10;" d="
				M151.502,161.809l-0.902,0.549c-1.12,0.683-2.582,0.328-3.265-0.792l0,0c-0.683-1.12-0.328-2.582,0.792-3.265l0.902-0.549
				c1.12-0.683,2.582-0.328,3.265,0.792l0,0C152.977,159.665,152.623,161.126,151.502,161.809z"/>
		</g>
		<path style="fill:#263238;" d="M223.067,218.654c-1.542-0.608-3.283,0.151-3.89,1.693c-8.44,21.44-16.735,27.581-18.092,28.475
			c-0.966,0.023-7.062-0.546-21.837-16.19c-3.186-3.373-6.538-7.544-9.962-12.397c-0.956-1.354-2.827-1.677-4.181-0.722
			c-1.354,0.955-1.677,2.827-0.722,4.181c3.587,5.084,7.121,9.478,10.502,13.058c12.499,13.234,20.07,17.195,24.449,17.962
			l0.302,12.388c0.04,1.632,1.374,2.927,2.998,2.927c0.025,0,0.05,0,0.075-0.001c1.656-0.04,2.966-1.416,2.926-3.072l-0.336-13.786
			c3.421-2.61,11.532-10.481,19.461-30.625C225.367,221.003,224.609,219.261,223.067,218.654z"/>
		<g>
			<path style="fill:#BABABA;stroke:#263238;stroke-linecap:round;stroke-linejoin:round;stroke-miterlimit:10;" d="M93.201,319.529
				c0,0-3.138,30.201,0.392,35.692c3.53,5.491,94.525,1.177,94.525,1.177l0.392-19.611l-52.165-9.805L93.201,319.529z"/>
			<polygon style="fill:#263238;stroke:#263238;stroke-linecap:round;stroke-linejoin:round;stroke-miterlimit:10;" points="
				130.266,325.887 93.108,326.669 92.717,321.193 			"/>
		</g>
		<path style="fill:#92E3A9;stroke:#263238;stroke-linecap:round;stroke-linejoin:round;stroke-miterlimit:10;" d="M121.049,219.906
			c0,0-10.198,5.099-14.12,9.805c-3.922,4.707-25.102,91.387-25.102,91.387l61.578,6.275l-3.138-76.483"/>
		<g>
			<g>
				
					<ellipse style="fill:#263238;stroke:#263238;stroke-linecap:round;stroke-linejoin:round;stroke-miterlimit:10;" cx="252.431" cy="328.792" rx="11.108" ry="11.613"/>
				
					<ellipse style="fill:#FFFFFF;stroke:#263238;stroke-linecap:round;stroke-linejoin:round;stroke-miterlimit:10;" cx="252.431" cy="328.792" rx="7.299" ry="7.631"/>
			</g>
			<path style="fill:#92E3A9;stroke:#263238;stroke-linecap:round;stroke-linejoin:round;stroke-miterlimit:10;" d="
				M180.666,334.041c0,0-1.177,24.71,0,25.102c1.177,0.392,15.297,0,17.258,0c1.961,0,21.964,5.491,32.162,6.668
				c10.198,1.177,14.904-2.745,17.65-7.452c2.746-4.707,5.099-8.237,5.099-8.237s7.452-14.904,7.06-20.395
				c-0.392-5.491-1.177-7.452-3.53-6.668c-2.353,0.784-1.961,3.53-4.707,7.452c-2.746,3.922-4.314,5.099-5.883,5.883
				c-1.569,0.784-9.806,0.392-10.982,0c-1.177-0.392,13.335-3.53,16.081-8.629c2.746-5.099,1.569-7.844-1.177-7.844
				s-6.275,2.353-12.551,3.922c-6.276,1.569-21.18-0.784-26.671,0c-5.491,0.785-13.728,9.021-13.728,9.021L180.666,334.041z"/>
			<path style="fill:none;stroke:#263238;stroke-linecap:round;stroke-linejoin:round;stroke-miterlimit:10;" d="M252.099,351.354
				c0,0-5.309,3.318-10.949,3.318"/>
			<path style="fill:none;stroke:#263238;stroke-linecap:round;stroke-linejoin:round;stroke-miterlimit:10;" d="M247.735,358.359
				c0,0-4.263,1.953-8.244,2.285"/>
			
				<line style="fill:none;stroke:#263238;stroke-linecap:round;stroke-linejoin:round;stroke-miterlimit:10;" x1="234.792" y1="336.395" x2="224.893" y2="334.764"/>
		</g>
		
			<line style="fill:none;stroke:#263238;stroke-linecap:round;stroke-linejoin:round;stroke-miterlimit:10;" x1="100.517" y1="315.142" x2="141.745" y2="320.16"/>
		
			<line style="fill:none;stroke:#263238;stroke-linecap:round;stroke-linejoin:round;stroke-miterlimit:10;" x1="88.997" y1="313.739" x2="94.079" y2="314.358"/>
	</g>
</g>
</svg>
